# xmcd
#
# Track frame offsets:
#	150
#	25053
#	44178
#	58803
#	75489
#	98850
#	116634
#	131775
#	152364
#	174114
#
# Disc length: 2520 seconds
#
# Revision: 1
# Processed by: cddbd v1.4PL0 Copyright (c) Steve Scherf et al.
# Submitted via: audiograbber 1.81.02
#
DISCID=7b09d60a
DTITLE=Sampler - Big City Blues East Coast Style
DYEAR=1900
DGENRE=Blues
TTITLE0=Luther "Guitar Junior" Johnson  - If The Blues Were Whiskey
TTITLE1=Holmes Brothers - Down In Virginia
TTITLE2=Magic Dick and Jay Geils - Full Court Press
TTITLE3=Roomful Of Blues - That Will Never Do
TTITLE4=Ronnie Earl and The Broadcasters - Eddie's Gospel Groove
TTITLE5=Little Buster and The Soul Brothers - What Can I Do (Somebody Tell Me)
TTITLE6=Michel Willson - Better Left Unsaid
TTITLE7=Duke Robillard - If This Is Love
TTITLE8=Ron Levy's Wild Kingdom - Gimme A Break
TTITLE9=Persuasions - Life Is A Ballgame
EXTD=
EXTT0=
EXTT1=
EXTT2=
EXTT3=
EXTT4=
EXTT5=
EXTT6=
EXTT7=
EXTT8=
EXTT9=
PLAYORDER=
